<?xml version="1.0" standalone="no"?>
<!DOCTYPE svg PUBLIC "-//W3C//DTD SVG 20010904//EN"
 "http://www.w3.org/TR/2001/REC-SVG-20010904/DTD/svg10.dtd">
<svg version="1.0" xmlns="http://www.w3.org/2000/svg"
 width="700.000000pt" height="700.000000pt" viewBox="0 0 700.000000 700.000000"
 preserveAspectRatio="xMidYMid meet">
<metadata>
Created by potrace 1.14, written by Peter Selinger 2001-2017
</metadata>
<g transform="translate(0.000000,700.000000) scale(0.100000,-0.100000)"
fill="#000000" stroke="none">
<path d="M5332 6980 c-32 -15 -47 -30 -62 -62 -19 -42 -20 -96 -20 -3348 0
-3127 1 -3307 18 -3340 9 -19 32 -45 51 -57 l34 -23 764 0 c840 0 809 -2 854
61 l24 34 0 3325 c0 3240 0 3326 -19 3356 -10 17 -33 40 -50 50 -30 18 -66 19
-791 21 -736 3 -761 2 -803 -17z m1526 -3407 l2 -3283 -735 0 -735 0 0 3278
c0 1803 3 3282 7 3285 3 4 333 6 732 5 l726 -3 3 -3282z"/>
<path d="M3146 6918 c-54 -15 -131 -91 -145 -144 -8 -30 -10 -514 -9 -1692 l3
-1650 -44 -6 c-24 -3 -125 -6 -225 -6 l-181 0 0 1092 0 1093 -22 38 c-13 21
-23 40 -23 41 0 2 42 5 93 8 73 3 100 9 134 28 102 57 138 183 83 290 -20 40
-905 812 -967 844 -49 25 -136 26 -183 1 -45 -23 -62 -37 -541 -452 -224 -194
-417 -368 -429 -388 -69 -111 -8 -271 119 -314 19 -6 70 -11 113 -11 44 0 78
-3 76 -7 -2 -5 -14 -29 -26 -55 l-22 -46 2 -1075 3 -1074 -283 -6 c-300 -7
-329 -12 -380 -60 -13 -12 -34 -40 -45 -62 l-22 -40 0 -1515 0 -1515 22 -40
c27 -50 58 -80 105 -100 32 -13 119 -15 645 -15 l608 0 0 753 c0 749 0 752 23
837 105 397 448 664 852 663 247 -1 456 -89 626 -265 114 -117 184 -241 226
-401 21 -80 22 -100 25 -806 3 -465 0 -734 -6 -752 l-10 -29 691 0 c611 0 694
2 724 16 45 22 83 61 105 109 18 38 19 106 19 1545 0 1464 -1 1506 -20 1545
-24 50 -36 64 -80 95 -33 23 -46 25 -188 30 l-152 5 -3 1682 -2 1681 -30 43
c-18 26 -50 53 -80 68 l-49 26 -546 2 c-358 1 -558 -2 -584 -9z m1135 -157
l24 -19 0 -1635 c0 -1594 0 -1635 -19 -1656 -19 -21 -23 -21 -560 -21 -474 0
-544 2 -564 16 l-22 15 0 1640 c0 1626 0 1639 20 1659 20 20 33 20 559 20 516
0 540 -1 562 -19z m-2485 -43 c16 -12 224 -191 462 -397 257 -222 435 -383
438 -397 7 -26 -18 -79 -41 -88 -9 -3 -416 -6 -904 -6 -797 0 -889 2 -909 16
-33 23 -45 60 -29 88 10 20 750 670 879 774 48 38 65 40 104 10z m573 -1113
c16 -8 31 -22 35 -30 3 -9 6 -484 6 -1054 0 -1035 0 -1038 -21 -1065 l-20 -26
-619 0 -619 0 -20 26 c-21 27 -21 30 -21 1066 l0 1040 29 29 29 29 597 0 c503
0 600 -2 624 -15z m2351 -2345 c20 -20 20 -33 20 -1510 0 -1477 0 -1490 -20
-1510 -20 -20 -33 -20 -620 -20 l-600 0 0 633 c0 375 -4 667 -10 717 -44 360
-259 658 -583 810 -280 132 -606 126 -885 -14 -264 -133 -450 -365 -533 -666
-23 -85 -23 -88 -27 -782 l-3 -698 -529 0 -529 0 -20 26 -21 27 0 1477 0 1477
21 27 20 26 2150 0 c2136 0 2149 0 2169 -20z"/>
</g>
</svg>
