<svg width="1440" height="360" viewBox="0 0 1440 360" fill="none" xmlns="http://www.w3.org/2000/svg"><path d="M1464 360H0V91.8c61.493-18.5 101.493 2.997 120 64.49 13.353-34.647 37.353-45.293 72-31.94 13.96-34.033 37.96-44.07 72-30.11 57.687-22.313 97.687-4.623 120 53.07 10.5-69.5 50.5-99 120-88.5 16.32-31.68 40.32-39.36 72-23.04 20.24-27.76 44.24-31.52 72-11.28 35.993-12.007 59.993-.013 72 35.98 24.073-55.927 64.073-71.857 120-47.79 34.4-13.6 58.4-3.203 72 31.19 65.22-14.78 105.22 10.44 120 75.66 27.44-20.56 51.44-17.12 72 10.32 31.49-16.507 55.49-9.017 72 22.47 3.78-44.213 27.78-64.43 72-60.65-6.25-54.247 17.75-84.497 72-90.75 43.74-4.26 67.74 15.48 72 59.22 28.31-19.687 52.31-15.373 72 12.94V360Z" fill="#F7A73E"/></svg>
