<svg width="1440" height="131" viewBox="0 0 1440 131" fill="none" xmlns="http://www.w3.org/2000/svg"><path d="M1512 131H0v.7c33.613-46.387 73.613-52.773 120-19.16 20.28-59.727 60.28-79.45 120-59.17 12.987-35.013 36.987-46.027 72-33.04 30.767-17.233 54.767-10.467 72 20.3 28.213-19.787 52.213-15.573 72 12.64 66.127-13.873 106.127 12.257 120 78.39 6.453-41.547 30.453-59.097 72-52.65 1.167-46.833 25.167-69.667 72-68.5 57.427-22.573 97.427-5.147 120 52.28 15.907-32.093 39.907-40.183 72-24.27 35.86-44.14 75.86-48.28 120-12.42 52.31-27.687 92.31-15.373 120 36.94 36.56-11.44 60.56 1.12 72 37.68 35.22-12.78 59.22-1.56 72 33.66 19.02-28.987 43.02-33.97 72-14.95 37.17-10.833 61.17 2.333 72 39.5 14.76-33.24 38.76-42.48 72-27.72V131Z" fill="#fff"/></svg>
