<svg width="48" height="47" viewBox="0 0 48 47" fill="none" xmlns="http://www.w3.org/2000/svg">
<rect x="34" width="12" height="47" fill="#F7A73E"/>
<rect x="36.5" y="0.5" width="11" height="46" stroke="black"/>
<rect x="20" width="9" height="25" fill="#EC4C4C"/>
<rect x="22.5" y="0.5" width="8" height="24" stroke="black"/>
<rect x="4" y="7" width="12" height="18" fill="#23C272"/>
<path d="M10 0L18.6603 8.25H1.33975L10 0Z" fill="#4573FF"/>
<rect x="6.5" y="7.5" width="11" height="17" stroke="black"/>
<path d="M4.58951 7.75L12 0.690561L19.4105 7.75H4.58951Z" stroke="black"/>
<line x1="1.5" y1="47" x2="1.5" y2="25" stroke="black"/>
<line x1="32.5" y1="47" x2="32.5" y2="25" stroke="black"/>
<line x1="1" y1="24.5" x2="33" y2="24.5" stroke="black"/>
<line x1="1" y1="46.5" x2="11" y2="46.5" stroke="black"/>
<line x1="23" y1="46.5" x2="33" y2="46.5" stroke="black"/>
<line x1="10.5" y1="47" x2="10.5" y2="38" stroke="black"/>
<line x1="23.5" y1="47" x2="23.5" y2="38" stroke="black"/>
<mask id="path-16-inside-1" fill="white">
<path d="M24 38C24 37.0807 23.8189 36.1705 23.4672 35.3212C23.1154 34.4719 22.5998 33.7003 21.9497 33.0503C21.2997 32.4002 20.5281 31.8846 19.6788 31.5328C18.8295 31.1811 17.9193 31 17 31C16.0807 31 15.1705 31.1811 14.3212 31.5328C13.4719 31.8846 12.7003 32.4002 12.0503 33.0503C11.4002 33.7003 10.8846 34.4719 10.5328 35.3212C10.1811 36.1705 10 37.0807 10 38L10.98 38C10.98 37.2094 11.1357 36.4266 11.4382 35.6962C11.7408 34.9659 12.1842 34.3022 12.7432 33.7432C13.3022 33.1842 13.9659 32.7408 14.6962 32.4382C15.4266 32.1357 16.2094 31.98 17 31.98C17.7906 31.98 18.5734 32.1357 19.3038 32.4382C20.0341 32.7408 20.6978 33.1842 21.2568 33.7432C21.8158 34.3022 22.2592 34.9659 22.5618 35.6962C22.8643 36.4266 23.02 37.2094 23.02 38H24Z"/>
</mask>
<path d="M24 38C24 37.0807 23.8189 36.1705 23.4672 35.3212C23.1154 34.4719 22.5998 33.7003 21.9497 33.0503C21.2997 32.4002 20.5281 31.8846 19.6788 31.5328C18.8295 31.1811 17.9193 31 17 31C16.0807 31 15.1705 31.1811 14.3212 31.5328C13.4719 31.8846 12.7003 32.4002 12.0503 33.0503C11.4002 33.7003 10.8846 34.4719 10.5328 35.3212C10.1811 36.1705 10 37.0807 10 38L10.98 38C10.98 37.2094 11.1357 36.4266 11.4382 35.6962C11.7408 34.9659 12.1842 34.3022 12.7432 33.7432C13.3022 33.1842 13.9659 32.7408 14.6962 32.4382C15.4266 32.1357 16.2094 31.98 17 31.98C17.7906 31.98 18.5734 32.1357 19.3038 32.4382C20.0341 32.7408 20.6978 33.1842 21.2568 33.7432C21.8158 34.3022 22.2592 34.9659 22.5618 35.6962C22.8643 36.4266 23.02 37.2094 23.02 38H24Z" fill="#C4C4C4" fill-opacity="0.01" stroke="black" stroke-width="2" mask="url(#path-16-inside-1)"/>
</svg>
