<svg width="48" height="47" fill="none" xmlns="http://www.w3.org/2000/svg"><path d="M34 0h12v47H34V0Z" fill="#F7A73E"/><path fill-rule="evenodd" clip-rule="evenodd" d="M47 1H37v45h10V1ZM36 0v47h12V0H36Z" fill="#000"/><path d="M20 0h9v25h-9V0Z" fill="#EC4C4C"/><path fill-rule="evenodd" clip-rule="evenodd" d="M30 1h-7v23h7V1Zm-8-1v25h9V0h-9Z" fill="#000"/><path d="M4 7h12v18H4V7Z" fill="#23C272"/><path d="m10 0 8.66 8.25H1.34L10 0Z" fill="#4573FF"/><path fill-rule="evenodd" clip-rule="evenodd" d="M17 8H7v16h10V8ZM6 7v18h12V7H6Z" fill="#000"/><path fill-rule="evenodd" clip-rule="evenodd" d="M12 1.381 5.84 7.25h12.32L12 1.381ZM12 0 3.34 8.25h17.32L12 0ZM2 25v22H1V25h1ZM33 25v22h-1V25h1ZM33 25H1v-1h32v1Z" fill="#000"/><path fill-rule="evenodd" clip-rule="evenodd" d="M11 47H1v-1h10v1ZM33 47H23v-1h10v1Z" fill="#000"/><path fill-rule="evenodd" clip-rule="evenodd" d="M11 38v9h-1v-9h1ZM24 38v9h-1v-9h1Z" fill="#000"/><path d="M24 38a7.001 7.001 0 0 0-11.95-4.95A6.998 6.998 0 0 0 10 38h.98a6.02 6.02 0 1 1 12.04 0H24Z" fill="#C4C4C4" fill-opacity=".01"/><path fill-rule="evenodd" clip-rule="evenodd" d="M10.98 38a6.02 6.02 0 1 1 12.04 0H24a7 7 0 1 0-14 0h.98Z" fill="#000"/></svg>