<svg width="1920" height="300" viewBox="0 0 1920 300" fill="none" xmlns="http://www.w3.org/2000/svg">
<g clip-path="url(#clip0_93:1808)">
<g clip-path="url(#clip1_93:1808)">
<path d="M1920 -30H0V329H1920V-30Z" fill="#23C272"/>
<path d="M46.3329 112.93L101.76 141.65V199.09L46.3329 227.81L-9.09375 199.09V141.65L46.3329 112.93ZM46.3329 285.25L101.76 313.97V371.41L46.3329 400.13L-9.09375 371.41V313.97L46.3329 285.25ZM157.186 285.25L212.613 313.97V371.41L157.186 400.13L101.76 371.41V313.97L157.186 285.25ZM434.32 26.7699L489.746 55.4899V112.93L434.32 141.65L378.893 112.93V55.4899L434.32 26.7699ZM378.893 112.93L434.32 141.65V199.09L378.893 227.81L323.466 199.09V141.65L378.893 112.93ZM489.746 -59.3901L545.173 -30.6701V26.7699L489.746 55.4899L434.32 26.7699V-30.6701L489.746 -59.3901ZM489.746 112.93L545.173 141.65V199.09L489.746 227.81L434.32 199.09V141.65L489.746 112.93ZM600.6 -59.3901L656.026 -30.6701V26.7699L600.6 55.4899L545.173 26.7699V-30.6701L600.6 -59.3901ZM600.6 285.25L656.026 313.97V371.41L600.6 400.13L545.173 371.41V313.97L600.6 285.25ZM822.32 285.25L877.746 313.97V371.41L822.32 400.13L766.893 371.41V313.97L822.32 285.25ZM1099.45 26.7699L1154.88 55.4899V112.93L1099.45 141.65L1044.03 112.93V55.4899L1099.45 26.7699ZM1044.03 112.93L1099.45 141.65V199.09L1044.03 227.81L988.6 199.09V141.65L1044.03 112.93ZM1210.31 199.09L1265.73 227.81V285.25L1210.31 313.97L1154.88 285.25V227.81L1210.31 199.09ZM1154.88 285.25L1210.31 313.97V371.41L1154.88 400.13L1099.45 371.41V313.97L1154.88 285.25ZM1321.16 26.7699L1376.59 55.4899V112.93L1321.16 141.65L1265.73 112.93V55.4899L1321.16 26.7699ZM1265.73 112.93L1321.16 141.65V199.09L1265.73 227.81L1210.31 199.09V141.65L1265.73 112.93ZM1265.73 285.25L1321.16 313.97V371.41L1265.73 400.13L1210.31 371.41V313.97L1265.73 285.25ZM1376.59 -59.3901L1432.01 -30.6701V26.7699L1376.59 55.4899L1321.16 26.7699V-30.6701L1376.59 -59.3901ZM1487.44 112.93L1542.87 141.65V199.09L1487.44 227.81L1432.01 199.09V141.65L1487.44 112.93ZM1598.29 -59.3901L1653.72 -30.6701V26.7699L1598.29 55.4899L1542.87 26.7699V-30.6701L1598.29 -59.3901ZM1653.72 26.7699L1709.15 55.4899V112.93L1653.72 141.65L1598.29 112.93V55.4899L1653.72 26.7699ZM1709.15 -59.3901L1764.57 -30.6701V26.7699L1709.15 55.4899L1653.72 26.7699V-30.6701L1709.15 -59.3901ZM1764.57 26.7699L1820 55.4899V112.93L1764.57 141.65L1709.15 112.93V55.4899L1764.57 26.7699ZM1875.43 26.7699L1930.85 55.4899V112.93L1875.43 141.65L1820 112.93V55.4899L1875.43 26.7699ZM1820 285.25L1875.43 313.97V371.41L1820 400.13L1764.57 371.41V313.97L1820 285.25ZM1930.85 285.25L1986.28 313.97V371.41L1930.85 400.13L1875.43 371.41V313.97L1930.85 285.25Z" stroke="#177E4A" stroke-opacity="0.6" stroke-width="2"/>
</g>
</g>
<defs>
<clipPath id="clip0_93:1808">
<rect width="1920" height="300" fill="white"/>
</clipPath>
<clipPath id="clip1_93:1808">
<rect width="1920" height="359" fill="white" transform="translate(0 -30)"/>
</clipPath>
</defs>
</svg>
