<svg width="1920" height="300" viewBox="0 0 1920 300" fill="none" xmlns="http://www.w3.org/2000/svg">
<g clip-path="url(#clip0_89:1744)">
<g clip-path="url(#clip1_89:1744)">
<path d="M1920 -107H0V300H1920V-107Z" fill="#4573FF"/>
<path d="M38.2553 20.0615L-46.8828 43.2734L61.068 106.69L38.2553 20.0615Z" fill="#0034D3" fill-opacity="0.4"/>
<path d="M135.822 282.711C150.906 282.949 167.009 280.052 175.18 267.148C183.936 253.323 183.405 235.055 174.833 221.11C166.718 207.91 151.122 203.298 135.822 203.125C120.145 202.947 103.385 206.556 95.2782 220.21C86.9556 234.229 89.6662 252.266 98.5329 265.934C106.557 278.304 121.257 282.48 135.822 282.711Z" fill="#0034D3" fill-opacity="0.4"/>
<path d="M519.979 445.109C556.874 447.04 587.313 419.057 605.913 386.578C624.665 353.835 633.609 313.088 614.062 280.829C595.211 249.719 555.885 243.78 519.979 244.761C486.154 245.685 450.513 255.542 434.261 285.74C418.469 315.085 432.317 348.973 448.102 378.322C464.798 409.362 485.249 443.293 519.979 445.109Z" fill="#0034D3" fill-opacity="0.4"/>
<path d="M1705.6 352.332C1730.3 353.611 1758.16 351.297 1771.25 329.937C1784.85 307.737 1777.19 279.52 1763.96 257.086C1751.18 235.408 1730.42 217.452 1705.6 218.605C1682.17 219.693 1666.82 241.05 1655.79 262.111C1645.59 281.601 1639.95 304.439 1650.58 323.691C1661.39 343.278 1683.55 351.191 1705.6 352.332Z" fill="#0034D3" fill-opacity="0.4"/>
<path d="M598.258 -37.2737L516.526 1.50539L554.638 84.6674L636.37 45.8883L598.258 -37.2737Z" fill="#0034D3" fill-opacity="0.4"/>
<path d="M1274.94 184.768C1294.55 184.655 1312.18 172.802 1321.57 155.276C1330.56 138.479 1329.96 117.588 1319.38 101.78C1309.88 87.6085 1291.79 85.7213 1274.94 85.6603C1257.94 85.5992 1239.61 87.2178 1229.95 101.459C1219.11 117.465 1218.19 138.778 1227.39 155.818C1236.92 173.471 1255.14 184.881 1274.94 184.768Z" fill="#0034D3" fill-opacity="0.4"/>
<path d="M1210.23 272.945L1130.01 236.603L1094.29 318.229L1174.51 354.571L1210.23 272.945Z" fill="#0034D3" fill-opacity="0.4"/>
<path d="M1197.27 45.2032C1220.67 44.0175 1240.43 31.064 1253.9 11.5633C1270.44 -12.3656 1289.38 -42.0386 1275.1 -67.4218C1260.77 -92.8715 1226.09 -89.5409 1197.27 -89.0552C1169.68 -88.5912 1138.67 -88.5139 1123.79 -64.8754C1108.07 -39.9208 1113.58 -6.6703 1129.94 17.8474C1144.5 39.6476 1171.4 46.5151 1197.27 45.2032Z" fill="#0034D3" fill-opacity="0.4"/>
<path d="M273.383 -13.2078L220.566 -68.8584L164.935 39.5786L273.383 -13.2078Z" fill="#0034D3" fill-opacity="0.4"/>
<path d="M701.416 281.678C721.554 281.866 740.552 271.392 750.585 253.624C760.582 235.918 760.209 213.764 749.525 196.477C739.462 180.194 720.301 173.224 701.416 174.065C683.998 174.839 669.229 185.358 660.084 200.459C650.384 216.476 645.278 236.017 653.78 252.723C662.894 270.635 681.593 281.494 701.416 281.678Z" fill="#0034D3" fill-opacity="0.4"/>
<path d="M1118.44 -29.1558L1072.85 -3.44573L1133.54 53.2725L1118.44 -29.1558Z" fill="#0034D3" fill-opacity="0.4"/>
<path d="M1655.86 -17.9265L1572.01 25.5447L1698.58 67.3905L1655.86 -17.9265Z" fill="#0034D3" fill-opacity="0.4"/>
<path d="M772.487 328.655L868.289 262.905L803.67 165.427L707.868 231.177L772.487 328.655Z" fill="#0034D3" fill-opacity="0.4"/>
</g>
</g>
<defs>
<clipPath id="clip0_89:1744">
<rect width="1920" height="300" fill="white"/>
</clipPath>
<clipPath id="clip1_89:1744">
<rect width="1920" height="407" fill="white" transform="translate(0 -107)"/>
</clipPath>
</defs>
</svg>
