<svg width="1920" height="300" viewBox="0 0 1920 300" fill="none" xmlns="http://www.w3.org/2000/svg">
<g clip-path="url(#clip0_92:1803)">
<g clip-path="url(#clip1_92:1803)">
<path d="M1920 -75H0V300H1920V-75Z" fill="#23C272"/>
<path d="M435.84 3.94995L491.266 33.95V93.95L435.84 123.95L380.413 93.95V33.95L435.84 3.94995ZM380.413 93.95L435.84 123.95V183.95L380.413 213.95L324.986 183.95V123.95L380.413 93.95ZM435.84 183.95L491.266 213.95V273.95L435.84 303.95L380.413 273.95V213.95L435.84 183.95ZM491.266 -86.05L546.693 -56.05V3.94995L491.266 33.95L435.84 3.94995V-56.05L491.266 -86.05ZM546.693 3.94995L602.12 33.95V93.95L546.693 123.95L491.266 93.95V33.95L546.693 3.94995ZM657.546 3.94995L712.973 33.95V93.95L657.546 123.95L602.12 93.95V33.95L657.546 3.94995ZM657.546 183.95L712.973 213.95V273.95L657.546 303.95L602.12 273.95V213.95L657.546 183.95ZM712.973 273.95L768.413 303.95V363.95L712.973 393.95L657.546 363.95V303.95L712.973 273.95ZM879.266 183.95L934.693 213.95V273.95L879.266 303.95L823.84 273.95V213.95L879.266 183.95ZM990.12 183.95L1045.55 213.95V273.95L990.12 303.95L934.693 273.95V213.95L990.12 183.95ZM1045.55 93.95L1100.97 123.95V183.95L1045.55 213.95L990.12 183.95V123.95L1045.55 93.95ZM1045.55 273.95L1100.97 303.95V363.95L1045.55 393.95L990.12 363.95V303.95L1045.55 273.95ZM1211.83 3.94995L1267.25 33.95V93.95L1211.83 123.95L1156.4 93.95V33.95L1211.83 3.94995ZM1378.11 273.95L1433.53 303.95V363.95L1378.11 393.95L1322.68 363.95V303.95L1378.11 273.95ZM1544.39 3.94995L1599.81 33.95V93.95L1544.39 123.95L1488.96 93.95V33.95L1544.39 3.94995ZM1655.24 183.95L1710.67 213.95V273.95L1655.24 303.95L1599.81 273.95V213.95L1655.24 183.95ZM1599.81 273.95L1655.24 303.95V363.95L1599.81 393.95L1544.39 363.95V303.95L1599.81 273.95ZM1710.67 -86.05L1766.09 -56.05V3.94995L1710.67 33.95L1655.24 3.94995V-56.05L1710.67 -86.05ZM1766.09 3.94995L1821.52 33.95V93.95L1766.09 123.95L1710.67 93.95V33.95L1766.09 3.94995ZM1821.52 -86.05L1876.95 -56.05V3.94995L1821.52 33.95L1766.09 3.94995V-56.05L1821.52 -86.05ZM1876.95 3.94995L1932.37 33.95V93.95L1876.95 123.95L1821.52 93.95V33.95L1876.95 3.94995ZM1821.52 93.95L1876.95 123.95V183.95L1821.52 213.95L1766.09 183.95V123.95L1821.52 93.95ZM1932.37 273.95L1987.8 303.95V363.95L1932.37 393.95L1876.95 363.95V303.95L1932.37 273.95Z" stroke="#177E4A" stroke-opacity="0.6" stroke-width="2"/>
</g>
</g>
<defs>
<clipPath id="clip0_92:1803">
<rect width="1920" height="300" fill="white"/>
</clipPath>
<clipPath id="clip1_92:1803">
<rect width="1920" height="375" fill="white" transform="translate(0 -75)"/>
</clipPath>
</defs>
</svg>
