<svg width="1440" height="258" viewBox="0 0 1440 258" fill="none" xmlns="http://www.w3.org/2000/svg"><path d="M1464 258H0V139.67c53.313-26.687 93.313-13.37 120 39.95 6.707-41.287 30.707-58.577 72-51.87 17.213-62.787 57.213-85.57 120-68.35 19.18-28.82 43.18-33.64 72-14.46 37.06-10.94 61.06 2.12 72 39.18 68.967-11.033 108.967 17.933 120 86.9 11.227-36.773 35.227-49.55 72-38.33 4.087-75.92 44.087-111.837 120-107.75 44.16-35.84 84.16-31.683 120 12.47 84.227 4.227 124.23 48.457 120 132.69 9.83-70.167 49.83-100.333 120-90.5 31.29-48.713 71.29-57.427 120-26.14 38.15-9.847 62.15 4.303 72 42.45 39.47-8.533 63.47 6.933 72 46.4 3.13-44.867 27.13-65.73 72-62.59V258Z" fill="#ADC2FF"/></svg>
