<svg width="218" height="216" fill="none" xmlns="http://www.w3.org/2000/svg"><path d="M100.877 101.594c-31.014-.726-54.644-5.08-54.644-10.885 0-1.452 1.477-2.54 3.692-3.629 0 0 8.123-3.265 14.03-3.265h.74c-.37-6.894-.37-14.513.368-21.77C67.648 32.292 77.986 3.628 83.524 3.628c5.539 0 15.507 27.213 18.461 58.054.739 7.256.739 14.513.739 21.77 0 2.54-.369 4.716-.369 7.257l-.739 10.159v.726h-.739Zm70.89-10.885c0 5.442-23.63 10.159-54.644 10.885v-.726l-1.108-10.16c-.369-2.177-.369-4.716-.369-7.256-.369-7.257 0-14.514.739-21.77 2.953-30.841 12.553-58.054 18.46-58.054 5.908 0 15.876 28.664 18.461 58.417.739 7.257.739 14.876.369 21.77h.739c7.753 0 13.661 3.265 13.661 3.265 2.215 1.089 3.692 2.177 3.692 3.629Z" fill="#ECF4F7"/><path d="M101.616 61.682h14.768c-.738 7.257-.738 14.513-.738 21.77h-14.03c.738-7.257.369-14.514 0-21.77Zm70.151 80.186v57.691S155.521 214.072 109 214.072c-45.783 0-62.767-14.513-62.767-14.513v-58.053s18.46 14.513 62.767 14.513c22.153 0 44.675-3.991 62.767-14.151ZM64.694 62.045c-.738 7.257-.738 14.876-.369 21.77h-.738c-5.539 0-14.03 3.265-14.03 3.265-2.216 1.089-3.693 2.54-3.693 3.629 0 5.442 24 10.159 54.644 10.885H117.123c30.645-.726 54.644-5.08 54.644-10.885 0-1.452-1.477-2.54-4.062-3.629 0 0-5.907-3.265-13.661-3.265h-.738c.369-7.257.369-14.513-.369-21.77h.738c6.277 0 14.031 1.814 14.031 1.814 28.798 5.805 47.998 15.965 47.998 27.213 0 10.885-17.723 20.681-44.675 26.486-17.723 3.992-39.137 6.169-62.398 6.169-23.26 0-44.675-2.177-62.398-6.169-27.322-5.805-44.675-15.601-44.675-26.486 0-11.248 19.2-21.408 47.998-27.213 0 0 5.908-1.814 14.03-1.814h1.108Z" fill="#4573FF" fill-opacity=".67"/><path d="m116.384 90.709 1.108 10.159v.726H100.877v-.726l.739-10.16c.369-2.177.369-4.716.369-7.256h14.03c0 2.54 0 5.08.369 7.257ZM171.767 119.735v22.133c-18.092 10.159-40.614 14.151-62.767 14.151-44.306 0-62.767-14.513-62.767-14.513v-21.771l.369-2.539c17.722 3.991 39.137 6.168 62.397 6.168 23.261 0 44.675-2.177 62.398-6.168l.37 2.539Z" fill="#AAB1BA"/><path d="M57.31 29.026c2.039 0 3.692-1.624 3.692-3.628 0-2.003-1.653-3.628-3.692-3.628-2.04 0-3.692 1.625-3.692 3.628 0 2.004 1.653 3.628 3.692 3.628Z" fill="#F7A73E"/><path d="M109 7.256c2.039 0 3.692-1.624 3.692-3.628S111.039 0 109 0s-3.692 1.624-3.692 3.628 1.653 3.628 3.692 3.628Z" fill="#23C272"/><path d="M182.843 39.911c2.039 0 3.692-1.624 3.692-3.628s-1.653-3.628-3.692-3.628-3.692 1.624-3.692 3.628 1.653 3.628 3.692 3.628Z" fill="#82A1FF"/><path d="M109.001 215.059c-46.152 0-63.136-14.513-63.875-14.877-.369-.362-.738-.725-.738-1.451v-68.938c0-1.089.738-1.815 1.846-1.815s1.846.726 1.846 1.815v9.796c3.692 2.54 22.522 13.788 60.921 13.788 22.522 0 38.398-3.991 47.26-7.257 1.107-.362 1.846 0 2.215 1.089.369 1.088 0 1.814-1.108 2.177-9.23 3.265-25.476 7.257-48.736 7.257-35.076 0-53.906-8.708-60.92-13.062v53.699c3.322 2.54 21.044 13.425 60.92 13.425 40.244 0 57.597-11.248 60.92-13.425v-67.487c0-1.089.739-1.815 1.847-1.815 1.107 0 1.846.726 1.846 1.815v68.938c0 .363-.369 1.089-.739 1.451-.369.364-16.984 14.877-63.505 14.877Zm0-90.709C48.081 124.35.082 109.111.082 89.88c0-11.973 18.092-22.495 49.475-29.026 1.108-.363 1.846.363 2.216 1.451.369 1.089-.37 1.814-1.477 2.177C21.497 70.287 3.775 80.084 3.775 89.88c0 14.877 42.46 30.841 105.226 30.841 62.767 0 105.227-15.965 105.227-30.84 0-9.797-17.723-19.594-46.521-25.399-1.108-.363-1.477-1.088-1.477-2.177.369-1.088 1.108-1.451 2.215-1.451 31.383 6.53 49.475 17.053 49.475 29.027-.001 19.23-47.999 34.469-108.919 34.469Zm0-21.77c-22.522 0-64.613-2.54-64.613-12.7 0-2.176 1.477-3.627 4.8-5.442.738-.362 1.846 0 2.584.726.37.726 0 1.814-.738 2.54-2.216 1.088-2.585 1.814-2.585 2.177 0 2.903 21.415 9.07 60.921 9.07s60.921-6.168 60.921-9.07c0 0 0-.726-2.954-2.177-.739-.363-1.477-1.451-.739-2.54.739-1.088 1.477-1.451 2.584-.726 1.108.726 4.8 2.177 4.8 5.443-.369 10.159-42.459 12.699-64.981 12.699Zm7.384-10.885c-1.108 0-1.846-.726-1.846-1.814-3.323-37.01 8.492-78.735 16.245-87.08 2.585-2.903 5.169-2.903 7.754 0 8.492 9.433 19.568 51.16 16.245 83.452 0 1.088-1.107 1.814-1.846 1.45-1.107 0-1.846-1.088-1.477-1.814 3.693-37.734-11.445-80.912-16.614-81.637-5.169.725-20.307 44.628-16.615 85.266 0 1.089-.739 2.177-1.846 2.177Zm-14.769 0c-1.107 0-1.846-1.088-1.846-1.814 3.692-40.638-11.445-84.54-16.615-85.266-5.169.726-20.306 43.54-16.614 81.638 0 1.088-.739 1.814-1.477 1.814-1.108 0-1.846-.726-1.846-1.451-3.323-31.93 7.753-74.019 16.245-83.452 2.585-2.903 5.17-2.903 7.754 0 7.753 8.345 19.938 50.07 16.246 87.08 0 .725-.739 1.451-1.847 1.451Zm33.23-1.814c-1.108 0-1.846-.726-1.846-1.814V39.084c0-1.089.738-1.815 1.846-1.815 1.107 0 1.846.726 1.846 1.815v48.983c0 1.088-.739 1.814-1.846 1.814Zm-51.69 0c-1.108 0-1.847-.726-1.847-1.814V39.084c0-1.089.739-1.815 1.846-1.815 1.108 0 1.847.726 1.847 1.815v48.983c0 1.088-.739 1.814-1.847 1.814ZM38.848 37.27c-1.107 0-1.846-.726-1.846-1.814V33.64h-1.846c-1.107 0-1.846-.726-1.846-1.814 0-1.089.739-1.814 1.846-1.814h1.847v-1.815c0-1.088.738-1.814 1.846-1.814s1.846.727 1.846 1.815v1.814h1.846c1.108 0 1.846.726 1.846 1.815 0 1.088-.738 1.814-1.846 1.814h-1.846v1.814c0 1.088-.739 1.814-1.846 1.814ZM9.313 19.128c-1.107 0-1.846-.726-1.846-1.814V11.87H1.928c-1.108 0-1.846-.726-1.846-1.814 0-1.089.738-1.814 1.846-1.814h5.538V2.8c0-1.088.739-1.814 1.846-1.814 1.108 0 1.847.726 1.847 1.814v5.443h5.538c1.108 0 1.846.726 1.846 1.814 0 1.089-.738 1.815-1.846 1.815h-5.538v5.442c0 1.089-.739 1.814-1.847 1.814Zm177.224-7.256c-1.107 0-1.846-.726-1.846-1.815V8.243h-1.846c-1.108 0-1.847-.726-1.847-1.814 0-1.089.739-1.815 1.847-1.815h1.846V2.8c0-1.088.739-1.814 1.846-1.814 1.108 0 1.846.726 1.846 1.814v1.815h1.847c1.107 0 1.846.726 1.846 1.814 0 1.089-.739 1.814-1.846 1.814h-1.847v1.814c0 1.089-.738 1.815-1.846 1.815Z" fill="#51565F"/></svg>