<svg width="1920" height="300" viewBox="0 0 1920 300" fill="none" xmlns="http://www.w3.org/2000/svg">
<g clip-path="url(#clip0_86:1652)">
<g clip-path="url(#clip1_86:1652)">
<path d="M1920 -97H0V300H1920V-97Z" fill="#F7A73E"/>
<path d="M164.729 133.326C201.684 134.073 231.88 106.44 249.197 74.0303C265.377 43.7484 265.882 7.2231 247.664 -21.8955C230.361 -49.5519 197.518 -60.1227 164.729 -60.9762C129.988 -61.8814 91.6275 -56.0878 73.8968 -26.4213C55.9182 3.66068 68.6889 40.276 86.0089 70.7365C103.72 101.885 128.701 132.598 164.729 133.326Z" fill="#C17108" fill-opacity="0.5"/>
<path d="M47.7998 10.8913C47.7998 29.4049 55.2099 47.1603 68.4 60.2515C81.59 73.3426 99.4796 80.6971 118.133 80.6971C136.787 80.6971 154.676 73.3426 167.866 60.2515C181.056 47.1603 188.466 29.4049 188.466 10.8913C188.466 -7.62238 181.056 -25.3778 167.866 -38.4689C154.676 -51.56 136.787 -58.9146 118.133 -58.9146C99.4796 -58.9146 81.59 -51.56 68.4 -38.4689C55.2099 -25.3778 47.7998 -7.62238 47.7998 10.8913V10.8913Z" fill="#C17108" fill-opacity="0.5"/>
<path d="M1719.33 226.939L1751.46 298.57L1823.63 266.678L1791.5 195.046L1719.33 226.939Z" fill="#C17108" fill-opacity="0.5"/>
<path d="M672.066 202.616C672.066 232.831 684.16 261.808 705.687 283.174C727.213 304.539 756.41 316.542 786.853 316.542C817.296 316.542 846.493 304.539 868.02 283.174C889.546 261.808 901.64 232.831 901.64 202.616C901.64 172.401 889.546 143.423 868.02 122.058C846.493 100.693 817.296 88.6902 786.853 88.6902C756.41 88.6902 727.213 100.693 705.687 122.058C684.16 143.423 672.066 172.401 672.066 202.616V202.616Z" fill="#C17108" fill-opacity="0.5"/>
<path d="M1628.68 57.6963L1547.35 63.3404L1553.04 144.055L1634.36 138.411L1628.68 57.6963Z" fill="#C17108" fill-opacity="0.5"/>
<path d="M991.174 180.185C991.174 205.599 1001.35 229.972 1019.45 247.942C1037.56 265.912 1062.11 276.008 1087.72 276.008C1113.33 276.008 1137.88 265.912 1155.99 247.942C1174.1 229.972 1184.27 205.599 1184.27 180.185C1184.27 167.602 1181.77 155.141 1176.92 143.516C1172.07 131.89 1164.95 121.327 1155.99 112.429C1147.02 103.531 1136.38 96.4724 1124.67 91.6568C1112.95 86.8413 1100.4 84.3628 1087.72 84.3628C1075.04 84.3628 1062.49 86.8413 1050.77 91.6568C1039.06 96.4724 1028.42 103.531 1019.45 112.429C1010.49 121.327 1003.37 131.89 998.523 143.516C993.671 155.141 991.174 167.602 991.174 180.185V180.185Z" fill="#C17108" fill-opacity="0.5"/>
<path d="M520.493 332.399C543.25 332.08 563.269 318.024 574.017 298.112C584.186 279.271 581.388 257.213 571.261 238.35C560.378 218.079 543.634 198.698 520.493 198.42C497.006 198.137 478.884 216.686 467.546 237.102C456.665 256.699 453.396 280.056 464.282 299.651C475.526 319.89 497.209 332.726 520.493 332.399Z" fill="#C17108" fill-opacity="0.5"/>
<path d="M418.027 220.34L472.803 133.337L385.143 78.9714L330.366 165.974L418.027 220.34Z" fill="#C17108" fill-opacity="0.5"/>
<path d="M1172.97 53.2249C1172.97 78.1192 1182.94 101.994 1200.67 119.597C1218.41 137.2 1242.46 147.089 1267.55 147.089C1292.63 147.089 1316.68 137.2 1334.42 119.597C1352.16 101.994 1362.12 78.1192 1362.12 53.2249C1362.12 28.3306 1352.16 4.4559 1334.42 -13.147C1316.68 -30.7499 1292.63 -40.6392 1267.55 -40.6392C1242.46 -40.6392 1218.41 -30.7499 1200.67 -13.147C1182.94 4.4559 1172.97 28.3306 1172.97 53.2249V53.2249Z" fill="#C17108" fill-opacity="0.5"/>
<path d="M1618.47 428.367C1657.45 429.2 1698.08 416.364 1717.47 382.788C1736.77 349.359 1726.19 308.818 1706.75 275.47C1687.34 242.19 1657.2 212.697 1618.47 212.975C1580.09 213.25 1550.86 243.35 1532.36 276.719C1514.63 308.694 1508.52 346.915 1526.57 378.712C1544.92 411.033 1581.09 427.569 1618.47 428.367Z" fill="#C17108" fill-opacity="0.5"/>
<path d="M1669.44 284.954C1669.44 311.782 1680.18 337.511 1699.29 356.482C1718.4 375.452 1744.33 386.109 1771.36 386.109C1798.39 386.109 1824.31 375.452 1843.43 356.482C1862.54 337.511 1873.28 311.782 1873.28 284.954C1873.28 258.126 1862.54 232.396 1843.43 213.426C1824.31 194.456 1798.39 183.798 1771.36 183.798C1744.33 183.798 1718.4 194.456 1699.29 213.426C1680.18 232.396 1669.44 258.126 1669.44 284.954Z" fill="#C17108" fill-opacity="0.5"/>
<path d="M1545.77 62.5093C1559.79 62.8772 1575.39 59.8454 1582.03 47.5834C1588.45 35.7105 1581.28 21.9915 1573.77 10.7617C1567.25 0.995476 1557.56 -6.06186 1545.77 -6.66133C1532.78 -7.32167 1519.23 -3.30404 1512.32 7.64125C1505.04 19.1847 1505.59 34.1079 1512.69 45.7625C1519.56 57.028 1532.51 62.1613 1545.77 62.5093Z" fill="#C17108" fill-opacity="0.5"/>
<path d="M773.131 344.175L813.188 234.947L703.134 195.191L663.077 304.42L773.131 344.175Z" fill="#C17108" fill-opacity="0.5"/>
</g>
</g>
<defs>
<clipPath id="clip0_86:1652">
<rect width="1920" height="300" fill="white"/>
</clipPath>
<clipPath id="clip1_86:1652">
<rect width="1920" height="397" fill="white" transform="translate(0 -97)"/>
</clipPath>
</defs>
</svg>
