<svg width="1920" height="300" viewBox="0 0 1920 300" fill="none" xmlns="http://www.w3.org/2000/svg">
<g clip-path="url(#clip0_85:1635)">
<g clip-path="url(#clip1_85:1635)">
<path d="M1920 0H0V396H1920V0Z" fill="#EC4C4C"/>
<path d="M61.0671 11.4445C97.886 11.4445 127.734 -18.1047 127.734 -54.5555C127.734 -91.0063 97.886 -120.556 61.0671 -120.556C24.2481 -120.556 -5.59961 -91.0063 -5.59961 -54.5555C-5.59961 -18.1047 24.2481 11.4445 61.0671 11.4445Z" stroke="#B71414" stroke-opacity="0.6" stroke-width="2"/>
<path d="M265.173 284.711C301.992 284.711 331.84 255.162 331.84 218.711C331.84 182.26 301.992 152.711 265.173 152.711C228.355 152.711 198.507 182.26 198.507 218.711C198.507 255.162 228.355 284.711 265.173 284.711Z" stroke="#B71414" stroke-opacity="0.6" stroke-width="2"/>
<path d="M1715.16 177.738C1753.91 177.738 1785.32 146.64 1785.32 108.28C1785.32 69.9189 1753.91 38.8213 1715.16 38.8213C1676.41 38.8213 1645 69.9189 1645 108.28C1645 146.64 1676.41 177.738 1715.16 177.738Z" stroke="#B71414" stroke-opacity="0.6" stroke-width="2"/>
<path d="M1907.24 360.862C1978.8 360.862 2036.81 303.43 2036.81 232.584C2036.81 161.738 1978.8 104.306 1907.24 104.306C1835.68 104.306 1777.67 161.738 1777.67 232.584C1777.67 303.43 1835.68 360.862 1907.24 360.862Z" stroke="#B71414" stroke-opacity="0.6" stroke-width="2"/>
<path d="M499.867 50.9652C524.005 50.9652 543.573 31.5928 543.573 7.69563C543.573 -16.2015 524.005 -35.574 499.867 -35.574C475.728 -35.574 456.16 -16.2015 456.16 7.69563C456.16 31.5928 475.728 50.9652 499.867 50.9652Z" stroke="#B71414" stroke-opacity="0.6" stroke-width="2"/>
<path d="M401.479 279.906C442.098 279.906 475.026 247.307 475.026 207.095C475.026 166.882 442.098 134.284 401.479 134.284C360.861 134.284 327.933 166.882 327.933 207.095C327.933 247.307 360.861 279.906 401.479 279.906Z" stroke="#B71414" stroke-opacity="0.6" stroke-width="2"/>
<path d="M55.1999 409.108C116.297 409.108 165.827 360.074 165.827 299.587C165.827 239.101 116.297 190.067 55.1999 190.067C-5.89751 190.067 -55.4268 239.101 -55.4268 299.587C-55.4268 360.074 -5.89751 409.108 55.1999 409.108Z" stroke="#B71414" stroke-opacity="0.6" stroke-width="2"/>
<path d="M1904.47 304.63C1956.27 304.63 1998.27 263.054 1998.27 211.768C1998.27 160.481 1956.27 118.906 1904.47 118.906C1852.66 118.906 1810.67 160.481 1810.67 211.768C1810.67 263.054 1852.66 304.63 1904.47 304.63Z" stroke="#B71414" stroke-opacity="0.6" stroke-width="2"/>
<path d="M64.787 184.965C99.7319 184.965 128.06 156.92 128.06 122.324C128.06 87.729 99.7319 59.6838 64.787 59.6838C29.8421 59.6838 1.51367 87.729 1.51367 122.324C1.51367 156.92 29.8421 184.965 64.787 184.965Z" stroke="#B71414" stroke-opacity="0.6" stroke-width="2"/>
<path d="M246.174 356.347C301.004 356.347 345.454 312.343 345.454 258.06C345.454 203.777 301.004 159.773 246.174 159.773C191.343 159.773 146.894 203.777 146.894 258.06C146.894 312.343 191.343 356.347 246.174 356.347Z" stroke="#B71414" stroke-opacity="0.6" stroke-width="2"/>
<path d="M873.293 310.345C931.408 310.345 978.52 263.705 978.52 206.171C978.52 148.637 931.408 101.996 873.293 101.996C815.178 101.996 768.066 148.637 768.066 206.171C768.066 263.705 815.178 310.345 873.293 310.345Z" stroke="#B71414" stroke-opacity="0.6" stroke-width="2"/>
<path d="M1783.49 384.747C1836.55 384.747 1879.57 342.164 1879.57 289.634C1879.57 237.105 1836.55 194.522 1783.49 194.522C1730.43 194.522 1687.42 237.105 1687.42 289.634C1687.42 342.164 1730.43 384.747 1783.49 384.747Z" stroke="#B71414" stroke-opacity="0.6" stroke-width="2"/>
<path d="M1108.99 111.105C1154.27 111.105 1190.99 74.759 1190.99 29.9245C1190.99 -14.91 1154.27 -51.2555 1108.99 -51.2555C1063.7 -51.2555 1026.99 -14.91 1026.99 29.9245C1026.99 74.759 1063.7 111.105 1108.99 111.105Z" stroke="#B71414" stroke-opacity="0.6" stroke-width="2"/>
<path d="M1291.01 237.197C1340.18 237.197 1380.03 197.74 1380.03 149.068C1380.03 100.395 1340.18 60.9379 1291.01 60.9379C1241.85 60.9379 1201.99 100.395 1201.99 149.068C1201.99 197.74 1241.85 237.197 1291.01 237.197Z" stroke="#B71414" stroke-opacity="0.6" stroke-width="2"/>
<path d="M569.947 300.135C595.319 300.135 615.887 279.773 615.887 254.654C615.887 229.536 595.319 209.174 569.947 209.174C544.575 209.174 524.007 229.536 524.007 254.654C524.007 279.773 544.575 300.135 569.947 300.135Z" stroke="#B71414" stroke-opacity="0.6" stroke-width="2"/>
<path d="M1189.33 87.6811C1236.41 87.6811 1274.57 49.9024 1274.57 3.30007C1274.57 -43.3023 1236.41 -81.0809 1189.33 -81.0809C1142.26 -81.0809 1104.1 -43.3023 1104.1 3.30007C1104.1 49.9024 1142.26 87.6811 1189.33 87.6811Z" stroke="#B71414" stroke-opacity="0.6" stroke-width="2"/>
<path d="M927.787 207.696C991.907 207.696 1043.89 156.236 1043.89 92.7565C1043.89 29.2774 991.907 -22.1825 927.787 -22.1825C863.666 -22.1825 811.687 29.2774 811.687 92.7565C811.687 156.236 863.666 207.696 927.787 207.696Z" stroke="#B71414" stroke-opacity="0.6" stroke-width="2"/>
<path d="M1541.76 295.456C1593.14 295.456 1634.8 254.217 1634.8 203.346C1634.8 152.475 1593.14 111.236 1541.76 111.236C1490.38 111.236 1448.72 152.475 1448.72 203.346C1448.72 254.217 1490.38 295.456 1541.76 295.456Z" stroke="#B71414" stroke-opacity="0.6" stroke-width="2"/>
<path d="M244.24 132.224C297.163 132.224 340.066 89.7504 340.066 37.3561C340.066 -15.0383 297.163 -57.5123 244.24 -57.5123C191.316 -57.5123 148.413 -15.0383 148.413 37.3561C148.413 89.7504 191.316 132.224 244.24 132.224Z" stroke="#B71414" stroke-opacity="0.6" stroke-width="2"/>
<path d="M706.799 389.954C741.048 389.954 768.813 362.468 768.813 328.561C768.813 294.655 741.048 267.168 706.799 267.168C672.55 267.168 644.786 294.655 644.786 328.561C644.786 362.468 672.55 389.954 706.799 389.954Z" stroke="#B71414" stroke-opacity="0.6" stroke-width="2"/>
<path d="M1764.11 158.202C1793.63 158.202 1817.56 134.51 1817.56 105.283C1817.56 76.0571 1793.63 52.3645 1764.11 52.3645C1734.59 52.3645 1710.65 76.0571 1710.65 105.283C1710.65 134.51 1734.59 158.202 1764.11 158.202Z" stroke="#B71414" stroke-opacity="0.6" stroke-width="2"/>
</g>
</g>
<defs>
<clipPath id="clip0_85:1635">
<rect width="1920" height="300" fill="white"/>
</clipPath>
<clipPath id="clip1_85:1635">
<rect width="1920" height="396" fill="white"/>
</clipPath>
</defs>
</svg>
