<svg width="825" height="550" fill="none" xmlns="http://www.w3.org/2000/svg"><g clip-path="url(#a)"><path d="M0 0h825v550H0V0Z" fill="#fff"/><path d="M281.325 192.683c-1.1-20.9-12.375-39.141-37.4-37.675-16.775 1.009-32.909 3.3-43.542 18.425-4.767 6.784-9.717 14.3-10.45 22.825-.458 5.317.183 11 1.1 16.225 8.25 45.467 78.192 42.809 88.367.184a67.04 67.04 0 0 0 1.925-19.984ZM125.766 441.192c-12.1-9.075-28.6-12.192-44.458-2.934-11.55 6.692-17.508 15.95-19.342 25.85-.641 2.2-1.1 4.309-1.375 6.417-7.516 32.45 30.892 72.325 66.55 44.55 26.492-20.717 23.559-55.275-1.375-73.883ZM502.241 539.275c-6.508-31.35-56.466-48.308-80.208-15.492-10.267 10.359-11.642 24.109-6.967 36.392 1.65 6.875 5.042 12.742 9.534 17.508 17.783 18.609 48.95 24.017 66.733 1.742 9.075-11.367 16.408-25.575 10.908-40.15Zm0-550c-6.508-31.35-56.466-48.308-80.208-15.492-10.267 10.359-11.642 24.109-6.967 36.392 1.65 6.875 5.042 12.742 9.534 17.508 17.783 18.609 48.95 24.017 66.733 1.742 9.075-11.367 16.408-25.575 10.908-40.15ZM778.891 456.5c-20.441 1.192-39.6 6.875-48.308 27.042-3.025 7.058-6.692 14.391-6.417 22.275 1.834 50.966 78.925 58.116 90.567 9.258 1.65-6.692-10.542-60.042-35.842-58.575ZM698.5 266.842c-7.517-5.592-17.509-1.742-25.025 2.016-6.784 3.392-13.2 7.517-19.8 11.092-6.05 3.3-12.559 6.417-18.15 10.542-16.775 12.375-2.292 41.341 9.716 51.7 15.584 13.383 38.134 14.575 54.634 1.925 28.05-21.634 24.933-57.75-1.375-77.275Zm92.858-110.734c-4.125-14.391-16.408-26.4-30.617-31.533-14.85-5.317-35.2-2.658-47.483 7.425-13.658 11.183-13.292 29.058-10.45 44.917 8.8 49.408 77.275 43.725 88.917-1.192 1.741-6.692 1.466-13.383-.367-19.617ZM548.533 78.925c-9.35 14.208-8.525 31.35-.825 46.2 2.383 4.583 5.683 8.708 9.533 12.1 13.017 11.55 32.542 15.675 48.767 8.708 13.108-5.591 21.908-18.15 24.475-31.808 17.967-44.825-53.258-78.833-81.95-35.2Zm-81.217 299.933c-15.858 20.717-10.816 54.084 16.042 69.025 20.717 11.55 47.85 1.559 58.483-19.158 19.617-38.5-8.433-77.917-51.791-65.083-9.9 2.933-17.417 8.341-22.734 15.216Zm89.467-165.916c-.458-.367-.917-.734-1.283-1.1-15.125-11.734-27.684-20.259-46.109-7.7-14.208 9.716-26.583 27.775-28.783 45.008-3.85 30.8 28.05 42.992 53.717 37.217 33.641-7.517 52.891-48.492 22.458-73.425Zm-180.4-125.859c-33.458 1.192-67.925 38.317-39.508 68.109 18.15 19.158 49.866 18.975 68.383.458 18.792-18.7 16.867-48.675-6.325-62.883-6.875-4.217-14.667-5.959-22.55-5.684Zm-109.358-66-.184-.183C253.825 5.408 231.733-2.567 210.558 9.625c-12.375 7.15-18.792 17.142-20.808 27.683-5.225 16.5 1.375 31.35 13.016 41.067 14.117 15.4 36.942 22.092 58.85 5.042 8.8-6.784 13.75-14.942 15.767-23.284 5.5-15.4.092-29.333-10.358-39.05Zm117.15 382.8c-15.492-13.291-38.317-19.708-56.559-8.708-16.775 10.175-.916 91.758 29.517 85.708 21.817-4.308 41.525-20.533 44.092-40.608 1.741-13.017-5.684-26.583-17.05-36.392Zm-267.759-195.8c-11-3.941-23.283-1.925-35.475 10.45-15.858 16.042-24.658 43.725-7.241 61.967 19.525 20.442 79.658 25.208 82.133-13.658.458-8.159-2.475-16.409-5.958-23.65-7.7-15.584-19.617-30.067-33.459-35.109Zm141.625 165.55c-.275-.366-.641-.641-.916-.916-17.692-16.134-54.175-.55-71.592 9.441-21.817 12.559-7.517 37.675 4.95 51.15 14.942 16.134 39.142 23.1 62.333 5.317 14.209-10.908 18.059-51.15 5.225-64.992ZM126.408 101.017c-9.533-23.559-39.692-29.425-61.417-21.634-9.9 3.484-19.158 10.267-23.65 20.167C21.908 142.908 82.5 173.892 113.3 146.3c8.708-7.792 15.858-17.325 15.95-29.7 0-5.867-1.009-11.092-2.842-15.583Zm189.2 159.958c-9.167 13.658-8.433 31.258-.825 45.375 3.117 5.775 7.883 12.65 14.758 14.483 6.509 1.742 13.842.642 20.259-.55 14.391-2.75 41.8-9.625 47.941-24.566 17.967-44.184-53.441-77.642-82.133-34.742ZM-26.767 395.817c21.45 11.366 49.592 1.558 60.592-18.884 8.8-16.316 9.533-37.033-3.025-51.791-9.625-11.367-40.517-23.65-53.625-10.359-2.75 2.842-4.675 6.509-6.325 9.992-8.525 17.325-21.267 58.483 2.383 71.042Zm825 0c21.45 11.366 49.592 1.558 60.592-18.884 8.8-16.316 9.533-37.033-3.025-51.791-9.625-11.367-40.517-23.65-53.625-10.359-2.75 2.842-4.675 6.509-6.325 9.992-8.525 17.325-21.267 58.483 2.383 71.042ZM615.45 422.125c-9.809 1.558-18.517 7.608-24.017 20.35-19.708 45.375 41.617 77.825 72.783 48.858 14.942-13.933 22-28.416 5.959-44.091a124.186 124.186 0 0 0-17.509-14.3c-11.458-7.884-25.208-12.742-37.216-10.817Z" fill="#F7A73E" fill-opacity=".85"/></g><defs><clipPath id="a"><path fill="#fff" d="M0 0h825v550H0z"/></clipPath></defs></svg>